<svg xmlns="http://www.w3.org/2000/svg" viewBox="0 0 841.9 595.3"><g fill="#61DAFB"><path d="M420.9 296.5c0 43.7-35.4 79.1-79.1 79.1-43.7 0-79.1-35.4-79.1-79.1 0-43.7 35.4-79.1 79.1-79.1 43.7 0 79.1 35.4 79.1 79.1z"/><path d="M520.5 78.1c-63.2-36.5-143.9-40.2-213.8-10.2C222.8 97.9 161.9 158.8 131.8 232c-30 69.9-26.3 150.6 10.2 213.8 36.5 63.2 100.8 108.8 175.4 123.4 74.6 14.7 151.7-2.9 211.8-48.6 60.1-45.6 97.9-115.9 102.6-191.2 4.7-75.3-23.6-149.8-76.3-203.1-14.9-15-31.4-28.3-49-39.6zm-99.6 472.7c-140.9 0-255.1-114.2-255.1-255.1S280 40.6 420.9 40.6 676 154.8 676 295.7 561.8 550.8 420.9 550.8z"/></g></svg>
